<?xml version="1.0" standalone="no"?>
<!DOCTYPE svg PUBLIC "-//W3C//DTD SVG 20010904//EN"
 "http://www.w3.org/TR/2001/REC-SVG-20010904/DTD/svg10.dtd">
<svg version="1.0" xmlns="http://www.w3.org/2000/svg"
 width="260.000000pt" height="260.000000pt" viewBox="0 0 260.000000 260.000000"
 preserveAspectRatio="xMidYMid meet">
<metadata>
Created by potrace 1.14, written by Peter Selinger 2001-2017
</metadata>
<g transform="translate(0.000000,260.000000) scale(0.100000,-0.100000)"
fill="#000000" stroke="none">
<path d="M595 2478 c-9 -15 -13 -29 -8 -30 4 0 259 -2 565 -3 l556 -1 5 22 c2
13 1 27 -2 32 -3 5 -240 9 -553 8 l-546 0 -17 -28z"/>
<path d="M545 2380 c-8 -16 -15 -31 -15 -35 0 -3 259 -5 575 -5 316 0 575 1
575 3 0 1 4 17 9 35 l10 32 -569 0 -569 0 -16 -30z"/>
<path d="M495 2284 c-31 -48 -22 -51 172 -50 98 1 183 4 188 8 14 8 427 7 440
-2 12 -8 351 -8 359 1 3 3 9 20 12 37 l7 32 -581 0 -580 0 -17 -26z"/>
<path d="M460 2205 c-4 -5 -15 -25 -24 -42 l-17 -33 196 0 195 0 15 36 c8 20
15 39 15 43 0 10 -371 7 -380 -4z"/>
<path d="M1314 2212 c-27 -3 -33 -8 -36 -33 l-5 -29 184 0 c140 0 183 3 183
13 0 6 3 21 6 32 5 19 0 20 -148 20 -84 0 -167 -1 -184 -3z"/>
<path d="M412 2107 c-53 -65 -129 -345 -138 -514 -7 -110 -6 -111 19 -137 l26
-26 569 0 568 0 44 183 c24 100 45 189 47 197 4 14 -17 16 -169 15 -95 0 -178
-4 -185 -8 -6 -4 -14 -25 -18 -47 l-7 -40 -249 0 -249 0 0 23 c0 12 22 78 49
145 27 67 44 122 38 122 -6 0 -4 6 5 13 12 9 38 66 38 82 0 1 -85 3 -189 3
-139 1 -192 -2 -199 -11z m85 -83 c-3 -3 -12 -4 -19 -1 -8 3 -5 6 6 6 11 1 17
-2 13 -5z m40 0 c-3 -3 -12 -4 -19 -1 -8 3 -5 6 6 6 11 1 17 -2 13 -5z m200 0
c-3 -3 -12 -4 -19 -1 -8 3 -5 6 6 6 11 1 17 -2 13 -5z"/>
<path d="M1154 1139 c-8 -16 -14 -30 -14 -32 0 -2 254 -4 565 -4 462 0 565 3
566 14 5 52 53 48 -549 49 l-553 0 -15 -27z"/>
<path d="M1105 1039 c-9 -17 -14 -33 -11 -36 6 -7 1137 -6 1143 0 2 3 8 18 13
36 l9 31 -569 0 -569 0 -16 -31z"/>
<path d="M1496 970 l-429 -5 -18 -32 c-10 -18 -18 -34 -16 -34 12 -6 377 -4
377 3 0 10 438 9 444 -1 3 -4 85 -7 183 -7 l177 1 10 33 c5 18 6 35 3 39 -9 8
-212 9 -731 3z"/>
<path d="M1001 833 l-21 -43 195 0 195 0 15 37 c8 20 13 38 10 41 -3 3 -88 6
-189 6 l-184 1 -21 -42z"/>
<path d="M1858 872 c-9 -2 -18 -16 -20 -33 l-5 -29 179 0 178 0 11 26 c5 15 7
29 4 32 -5 5 -321 9 -347 4z"/>
<path d="M954 738 c-10 -24 -18 -46 -16 -50 1 -5 -2 -8 -7 -8 -10 0 -32 -71
-60 -190 -30 -130 -32 -138 -38 -247 -6 -99 -5 -102 20 -127 l26 -26 568 0
568 0 48 193 c26 105 47 194 47 197 0 3 -81 5 -180 5 l-179 0 -12 -47 -11 -48
-249 0 -249 0 0 22 c0 21 70 213 111 305 11 24 19 47 19 52 0 5 -84 10 -193
10 l-194 1 -19 -42z m23 -54 c-3 -3 -12 -4 -19 -1 -8 3 -5 6 6 6 11 1 17 -2
13 -5z m60 0 c-3 -3 -12 -4 -19 -1 -8 3 -5 6 6 6 11 1 17 -2 13 -5z m60 0 c-3
-3 -12 -4 -19 -1 -8 3 -5 6 6 6 11 1 17 -2 13 -5z m60 0 c-3 -3 -12 -4 -19 -1
-8 3 -5 6 6 6 11 1 17 -2 13 -5z m60 0 c-3 -3 -12 -4 -19 -1 -8 3 -5 6 6 6 11
1 17 -2 13 -5z"/>
</g>
</svg>
